<?xml version="1.0" encoding="UTF-8"?>
<!-- Generated by Pixelmator Pro 3.6.12 -->
<svg width="512" height="512" viewBox="0 0 512 512" xmlns="http://www.w3.org/2000/svg">
    <path id="Rectangle" fill="#f2f2f2" fill-rule="evenodd" stroke="none" d="M 0 512 L 512 512 L 512 0 L 0 0 Z"/>
    <path id="Path" fill="#1e2e3b" stroke="#1e2e3b" stroke-width="8.547083" visibility="hidden" d="M 759.139282 155.602539 L 754.010986 194.063538 L 630.503052 194.063538 L 621.101074 263.720703 L 738.198547 263.720703 L 733.070251 302.181702 L 615.972717 302.181702 L 601.442322 412.009155 L 559.133423 412.009155 L 593.322449 155.602539 L 759.139282 155.602539 Z"/>
    <path id="path1" fill="#1e2e3b" stroke="#1e2e3b" stroke-width="8.547083" visibility="hidden" d="M 922.819458 412.009155 L 927.947693 373.548157 L 807.004028 373.548157 L 836.064636 155.602539 L 793.755737 155.602539 L 759.56665 412.009155 L 922.819458 412.009155 Z"/>
    <path id="path2" fill="#1e2e3b" stroke="#1e2e3b" stroke-width="8.547083" visibility="hidden" d="M 1521.555176 155.602539 L 1439.928833 335.514526 L 1407.449219 155.602539 L 1377.961182 155.602539 L 1297.616821 335.514526 L 1263.855103 155.602539 L 1222.401001 155.602539 L 1272.402466 412.009155 L 1301.890381 412.009155 L 1382.662109 232.097168 L 1415.141602 412.009155 L 1444.629761 412.009155 L 1563.009277 155.602539 L 1521.555176 155.602539 Z"/>
    <path id="Teardrop-Marker" fill="#1e2e3b" fill-rule="evenodd" stroke="none" visibility="hidden" d="M 0.89034 254.21225 C 0.89034 112.897736 115.45356 -1.660278 256.774017 -1.660278 C 398.094452 -1.660278 512.657654 112.897736 512.657654 254.21225 C 512.657654 395.526733 398.094452 510.084747 256.774017 510.084747 L 0.89034 510.084747 L 0.89034 254.21225 Z"/>
    <path id="Circle" fill="#e2e2e2" fill-rule="evenodd" stroke="none" visibility="hidden" d="M 1183.795776 289.788666 C 1183.795776 259.106598 1139.78833 234.233887 1085.502319 234.233887 C 1031.216309 234.233887 987.208801 259.106598 987.208801 289.788666 C 987.208801 320.470703 1031.216309 345.343445 1085.502319 345.343445 C 1139.78833 345.343445 1183.795776 320.470703 1183.795776 289.788666 Z"/>
    <path id="path3" fill="#1e2e3b" stroke="none" visibility="hidden" d="M 1089.918457 148.764984 C 1017.266724 148.764984 966.4104 207.738525 958.290527 280.387085 L 943.760193 412.009155 L 1089.918457 412.009155 C 1162.57019 412.009155 1221.546265 353.035645 1221.546265 280.387085 C 1221.546265 207.738525 1162.57019 148.764984 1089.918457 148.764984 Z M 1054.019775 320.557495 L 1009.146729 320.557495 L 1018.548767 251.327667 L 1031.796997 251.327667 L 1024.10437 308.591858 L 1055.72937 308.591858 L 1054.019775 320.557495 Z M 1083.080566 263.293335 L 1075.387939 320.557495 L 1062.139893 320.557495 L 1069.832275 263.293335 L 1047.609375 263.293335 L 1049.31897 251.327667 L 1107.012939 251.327667 L 1105.303345 263.293335 L 1083.080566 263.293335 Z M 1114.278076 295.344177 C 1115.132813 298.335571 1115.987427 300.47229 1117.697021 302.609009 C 1119.406494 304.745728 1121.543335 306.027771 1124.107544 307.309814 C 1126.671509 308.591858 1129.663208 309.019165 1132.654785 309.019165 C 1135.64624 309.019165 1139.9198 308.591858 1142.911377 307.309814 C 1145.902954 306.027771 1148.467163 304.31842 1150.603882 302.181702 L 1158.723755 311.155884 C 1154.877563 314.147339 1151.03125 316.711365 1146.330322 318.420776 C 1141.629272 320.130127 1136.928345 320.984802 1131.372559 320.984802 C 1125.816895 320.984802 1121.543335 320.130127 1117.697021 318.420776 C 1113.423462 316.711365 1110.004395 314.147339 1107.440186 310.728577 C 1104.876099 307.309814 1102.73938 303.891052 1101.457153 299.190308 C 1100.175171 294.91687 1100.175171 290.216034 1100.602539 285.087921 C 1101.457153 279.959778 1102.73938 275.258972 1105.303345 270.985535 C 1107.440186 266.712097 1110.431763 262.866028 1114.278076 259.874573 C 1117.697021 256.455841 1121.970703 254.319122 1126.671509 252.182404 C 1131.372559 250.472992 1136.073608 249.618317 1141.202026 249.618317 C 1146.330322 249.618317 1151.45874 250.472992 1155.7323 252.182404 C 1159.578613 253.891754 1162.997437 256.455841 1165.989014 259.447266 L 1155.7323 268.421448 C 1154.022949 266.284729 1151.886108 264.575378 1149.321899 263.293335 C 1146.75769 262.011292 1143.766113 261.583984 1139.9198 261.583984 C 1136.073608 261.583984 1133.936768 262.011292 1130.94519 263.293335 C 1127.953735 264.575378 1125.816895 265.857422 1123.252686 267.994141 C 1120.688477 270.130859 1118.979126 272.694885 1117.697021 275.258972 C 1116.414917 278.250366 1115.132813 281.24176 1114.705444 284.660522 C 1114.278076 288.079315 1114.705444 291.498077 1114.705444 294.062103 Z"/>
    <g id="Group"/>
    <g id="g1">
        <path id="path4" fill="#557d53" stroke="none" d="M 261.830688 462 L 54.013309 462 L 54.013309 254.182617 C 54.013309 139.407684 147.395294 46.365295 261.830688 46.365295 C 376.266052 46.365295 469.648041 139.747253 469.648041 254.182617 C 469.648041 368.618011 376.266052 462 261.830688 462 Z M 84.574684 431.438629 L 261.830688 431.438629 C 359.627045 431.438629 439.086639 351.979004 439.086639 254.182617 C 439.086639 156.38623 359.627045 76.926666 261.830688 76.926666 C 164.034271 76.926666 84.574684 156.38623 84.574684 254.182617 L 84.574684 431.438629 Z"/>
        <path id="path5" fill="#557d53" stroke="none" d="M 117.073257 384.700256 C 117.073257 384.700256 149.073868 314.441101 236.032089 314.441101 L 236.032089 314.441101 C 304.207367 314.441101 325.077332 252.181732 325.077332 252.181732 C 325.077332 252.181732 318.120667 260.877167 283.685181 260.877167 L 231.510254 260.877167 C 137.595367 260.877167 117.073257 385.048096 117.073257 385.048096 Z"/>
        <path id="path6" fill="#1e2e3b" stroke="none" d="M 250.955795 234.161499 L 293.739197 234.161499 C 361.914459 234.161499 382.784454 171.9021 382.784454 171.9021 C 382.784454 171.9021 375.827789 180.597534 341.392334 180.597534 L 246.43396 180.597534 C 152.519089 180.597534 131.996933 304.768433 131.996933 304.768433 C 131.996933 304.768433 163.997543 234.509277 250.955795 234.509277 Z"/>
    </g>
</svg>
